<svg xmlns="http://www.w3.org/2000/svg" width="1000" height="560" viewBox="0 0 1000 560" role="img" aria-labelledby="title desc" data-illustration="mori-editorial" data-topic-id="105" data-scene-index="1"><title id="title">森町で家屋を取り壊した後の記録整理｜町への届出と滅失登記を分けるの挿絵1</title><desc id="desc">森町の山並み、道、森町で家屋を取り壊した後の記録整理で最初に決める確認範囲の確認場面</desc><rect width="1000" height="560" rx="32" fill="#f4e4c8"/><polygon points="0,220 100,164 200,171 300,245 400,205 500,196 600,152 700,125 800,132 900,173 1000,183 1000,350 0,350" fill="#5a3827" opacity=".22"/><path d="M0 430 Q250 359 500 430 T1000 410 V560 H0Z" fill="#5a3827" opacity=".18"/><path d="M60 500 C230 372 360 439 520 450 S780 397 940 390" fill="none" stroke="#4f7b57" stroke-width="24" stroke-linecap="round"/><circle cx="110" cy="180" r="12" fill="#4f7b57" opacity=".55"/><circle cx="177" cy="222" r="15" fill="#4f7b57" opacity=".55"/><circle cx="244" cy="264" r="18" fill="#4f7b57" opacity=".55"/><circle cx="311" cy="180" r="21" fill="#4f7b57" opacity=".55"/><circle cx="378" cy="222" r="12" fill="#4f7b57" opacity=".55"/><circle cx="445" cy="264" r="15" fill="#4f7b57" opacity=".55"/><circle cx="512" cy="180" r="18" fill="#4f7b57" opacity=".55"/><circle cx="579" cy="222" r="21" fill="#4f7b57" opacity=".55"/><g data-scene="land"><path d="M285 460 390 270l110 105 105-155 120 240Z" fill="#fff" stroke="#5a3827" stroke-width="9"/><path d="M500 375v100" stroke="#4f7b57" stroke-width="18"/></g><text x="500" y="72" text-anchor="middle" font-family="sans-serif" font-size="32" font-weight="700" fill="#5a3827">住宅・公式資料で確定できる範囲と、資料</text></svg>