<svg xmlns="http://www.w3.org/2000/svg" width="1000" height="560" viewBox="0 0 1000 560" role="img" aria-labelledby="title desc" data-illustration="mori-editorial" data-topic-id="163" data-scene-index="2"><title id="title">森町の農地を親族以外が耕しているときの挿絵2</title><desc id="desc">森町の山並み、道、口約束の耕作と正式な利用権を整理したい人が集める資料の確認場面</desc><rect width="1000" height="560" rx="32" fill="#f4e4c8"/><polygon points="0,239 100,195 200,202 300,221 400,160 500,180 600,159 700,128 800,242 900,153 1000,224 1000,350 0,350" fill="#5a3827" opacity=".22"/><path d="M0 430 Q250 400 500 430 T1000 410 V560 H0Z" fill="#5a3827" opacity=".18"/><path d="M60 500 C230 392 360 383 520 450 S780 353 940 390" fill="none" stroke="#4f7b57" stroke-width="24" stroke-linecap="round"/><circle cx="110" cy="180" r="12" fill="#4f7b57" opacity=".55"/><g data-scene="people"><circle cx="430" cy="290" r="42" fill="#4f7b57"/><circle cx="570" cy="290" r="42" fill="#fff" stroke="#5a3827" stroke-width="8"/><path d="M355 475q75-155 150 0M495 475q75-155 150 0" fill="none" stroke="#5a3827" stroke-width="18"/></g><text x="500" y="72" text-anchor="middle" font-family="sans-serif" font-size="32" font-weight="700" fill="#5a3827">農地・筆ごとの地番、地目、面積、現況、</text></svg>