<svg xmlns="http://www.w3.org/2000/svg" width="1000" height="560" viewBox="0 0 1000 560" role="img" aria-labelledby="title desc" data-illustration="mori-editorial" data-topic-id="106" data-scene-index="3"><title id="title">森町の住宅候補地で接道を確認する｜公道・私道・幅員の挿絵3</title><desc id="desc">森町の山並み、道、誰が、どの時点で「住宅候補地で接道を確認する」を確認する記事かの確認場面</desc><rect width="1000" height="560" rx="32" fill="#e2ebf7"/><polygon points="0,167 100,131 200,169 300,156 400,220 500,236 600,175 700,222 800,250 900,214 1000,200 1000,350 0,350" fill="#283f66" opacity=".22"/><path d="M0 430 Q250 373 500 430 T1000 410 V560 H0Z" fill="#283f66" opacity=".18"/><path d="M60 500 C230 438 360 370 520 450 S780 372 940 390" fill="none" stroke="#b75d43" stroke-width="24" stroke-linecap="round"/><circle cx="110" cy="180" r="12" fill="#b75d43" opacity=".55"/><circle cx="177" cy="222" r="15" fill="#b75d43" opacity=".55"/><circle cx="244" cy="264" r="18" fill="#b75d43" opacity=".55"/><circle cx="311" cy="180" r="21" fill="#b75d43" opacity=".55"/><circle cx="378" cy="222" r="12" fill="#b75d43" opacity=".55"/><circle cx="445" cy="264" r="15" fill="#b75d43" opacity=".55"/><circle cx="512" cy="180" r="18" fill="#b75d43" opacity=".55"/><circle cx="579" cy="222" r="21" fill="#b75d43" opacity=".55"/><circle cx="646" cy="264" r="12" fill="#b75d43" opacity=".55"/><circle cx="713" cy="180" r="15" fill="#b75d43" opacity=".55"/><circle cx="780" cy="222" r="18" fill="#b75d43" opacity=".55"/><g data-scene="home"><path d="M350 350 500 225l150 125v140H350Z" fill="#fff" stroke="#283f66" stroke-width="9"/><rect x="470" y="405" width="60" height="85" fill="#b75d43"/></g><text x="500" y="72" text-anchor="middle" font-family="sans-serif" font-size="32" font-weight="700" fill="#283f66">住宅・役場資料と登記・現地設備を同じ表</text></svg>