<svg xmlns="http://www.w3.org/2000/svg" width="1000" height="560" viewBox="0 0 1000 560" role="img" aria-labelledby="title desc" data-illustration="mori-editorial" data-topic-id="246" data-scene-index="1"><title id="title">森町の固定資産税課税明細書を一筆一棟で整理するの挿絵1</title><desc id="desc">森町の山並み、道、通知書と課税明細書の役割を分けるの確認場面</desc><rect width="1000" height="560" rx="32" fill="#f4e4c8"/><polygon points="0,213 100,247 200,183 300,138 400,169 500,237 600,237 700,139 800,227 900,131 1000,166 1000,350 0,350" fill="#5a3827" opacity=".22"/><path d="M0 430 Q250 379 500 430 T1000 410 V560 H0Z" fill="#5a3827" opacity=".18"/><path d="M60 500 C230 407 360 367 520 450 S780 376 940 390" fill="none" stroke="#4f7b57" stroke-width="24" stroke-linecap="round"/><circle cx="110" cy="180" r="12" fill="#4f7b57" opacity=".55"/><circle cx="177" cy="222" r="15" fill="#4f7b57" opacity=".55"/><circle cx="244" cy="264" r="18" fill="#4f7b57" opacity=".55"/><circle cx="311" cy="180" r="21" fill="#4f7b57" opacity=".55"/><circle cx="378" cy="222" r="12" fill="#4f7b57" opacity=".55"/><circle cx="445" cy="264" r="15" fill="#4f7b57" opacity=".55"/><g data-scene="tax-document-three-roles"><rect x="260" y="285" width="190" height="175" rx="14" fill="#fff" stroke="#5a3827" stroke-width="9"/><rect x="405" y="240" width="190" height="175" rx="14" fill="#f4e4c8" stroke="#5a3827" stroke-width="9"/><rect x="550" y="195" width="190" height="175" rx="14" fill="#fff" stroke="#5a3827" stroke-width="9"/><path d="M295 335h120m-120 45h90m145-90h120m-120 45h90m95-90h120m-120 45h90" stroke="#4f7b57" stroke-width="8"/></g><text x="500" y="72" text-anchor="middle" font-family="sans-serif" font-size="32" font-weight="700" fill="#5a3827">課税明細・資料の役割</text></svg>