<svg xmlns="http://www.w3.org/2000/svg" width="1000" height="560" viewBox="0 0 1000 560" role="img" aria-labelledby="title desc" data-illustration="mori-editorial" data-topic-id="81" data-scene-index="3"><title id="title">森町の山林で火を使う前・煙を見た後の二枚表｜許可・届出・119番の挿絵3</title><desc id="desc">煙や炎を見た人が安全に退避し、119番へ現在地と火が見える方向を伝える流れを森町の山林で示す図</desc><rect width="1000" height="560" rx="32" fill="#dcefe5"/><polygon points="0,199 100,232 200,203 300,141 400,169 500,207 600,245 700,169 800,172 900,132 1000,126 1000,350 0,350" fill="#173f36" opacity=".22"/><path d="M0 430 Q250 367 500 430 T1000 410 V560 H0Z" fill="#173f36" opacity=".18"/><path d="M60 500 C230 407 360 368 520 450 S780 377 940 390" fill="none" stroke="#d49a3a" stroke-width="24" stroke-linecap="round"/><circle cx="110" cy="180" r="12" fill="#d49a3a" opacity=".55"/><circle cx="177" cy="222" r="15" fill="#d49a3a" opacity=".55"/><circle cx="244" cy="264" r="18" fill="#d49a3a" opacity=".55"/><circle cx="311" cy="180" r="21" fill="#d49a3a" opacity=".55"/><circle cx="378" cy="222" r="12" fill="#d49a3a" opacity=".55"/><circle cx="445" cy="264" r="15" fill="#d49a3a" opacity=".55"/><circle cx="512" cy="180" r="18" fill="#d49a3a" opacity=".55"/><circle cx="579" cy="222" r="21" fill="#d49a3a" opacity=".55"/><g data-scene="wildfire-safe-119-location-route"><path d="M130 445 260 265l105 120 110-165 125 165 105-120 165 180Z" fill="#dcefe5" stroke="#173f36" stroke-width="10"/><circle cx="275" cy="365" r="48" fill="#fff" stroke="#173f36" stroke-width="9"/><path d="M275 315v100M225 365h100" stroke="#d49a3a" stroke-width="10"/><path d="M345 365h120M625 365h120" stroke="#d49a3a" stroke-width="13"/><rect x="465" y="285" width="160" height="160" rx="28" fill="#fff" stroke="#173f36" stroke-width="10"/><path d="M505 325q40 65 80 0M505 405q40-65 80 0" fill="none" stroke="#d49a3a" stroke-width="11"/><circle cx="785" cy="365" r="54" fill="#fff" stroke="#173f36" stroke-width="10"/><path d="M785 325v80M745 365h80" stroke="#d49a3a" stroke-width="10"/><g font-family="sans-serif" font-size="18" font-weight="700" fill="#173f36" text-anchor="middle"><text x="275" y="470">安全な退避</text><text x="545" y="485">119番</text><text x="785" y="470">現在地と方向</text></g></g><text x="500" y="72" text-anchor="middle" font-family="sans-serif" font-size="32" font-weight="700" fill="#173f36">林野火災・安全から119番</text></svg>