<svg xmlns="http://www.w3.org/2000/svg" viewBox="0 0 1000 560" width="1000" height="560" role="img" data-illustration="mori-editorial" aria-labelledby="afr1Title afr1Desc" preserveAspectRatio="xMidYMid meet">
  <title id="afr1Title">静岡県森町の山あいの家から袋井方面へバスで出る道筋のイラスト</title>
  <desc id="afr1Desc">左手前に瓦屋根の家と杖を持った高齢の女性が立ち、細い道に森町営バスの小型車両が停まっています。車体の上に二百円の札が下がります。中ほどには森林組合前と書かれた乗り継ぎのバス停があり、そこから右へ秋葉線の路線バスが袋井方面へ走ります。秋葉線のバスの上には七百十円の札があり、その手前に五百九十円と書かれた札が斜線で消されています。右奥には袋井の駅舎と病院の白い棟、店の看板が並びます。背景には遠州の山並み、杉林、段になった茶畑、川と橋が広がっています。写真ではなくイラストです。</desc>

  <defs>
    <linearGradient id="afr1Sky" x1="0" y1="0" x2="0" y2="1">
      <stop offset="0" stop-color="#bcd6ec"/><stop offset="1" stop-color="#e8f0e4"/>
    </linearGradient>
    <linearGradient id="afr1Far" x1="0" y1="0" x2="0" y2="1">
      <stop offset="0" stop-color="#88a6bb"/><stop offset="1" stop-color="#b4c9d1"/>
    </linearGradient>
    <linearGradient id="afr1Road" x1="0" y1="0" x2="0" y2="1">
      <stop offset="0" stop-color="#b7b3ab"/><stop offset="1" stop-color="#9a968f"/>
    </linearGradient>
  </defs>

  <rect width="1000" height="560" fill="#eef3e9"/>
  <rect width="1000" height="182" fill="url(#afr1Sky)"/>
  <path fill="url(#afr1Far)" d="M0 118 L96 50 L206 118 L322 42 L440 118 L558 40 L676 118 L792 52 L900 118 L1000 70 L1000 164 L0 164 Z"/>

  <!-- 茶畑の帯 -->
  <path fill="#7fae57" d="M0 182 C 220 172, 440 196, 660 184 C 764 178, 858 188, 1000 182 L1000 224 L0 230 Z"/>
  <g stroke="#5d8840" stroke-width="4" opacity="0.85" fill="none">
    <path d="M0 192 C 220 182, 440 206, 660 194 C 764 188, 858 198, 1000 192"/>
    <path d="M0 208 C 220 198, 440 222, 660 210 C 764 204, 858 214, 1000 208"/>
  </g>
  <g fill="#3f6b52">
    <path d="M10 228 l16 -58 l16 58 z"/><path d="M44 228 l13 -46 l13 46 z"/>
    <path d="M78 228 l12 -42 l12 42 z"/>
    <path d="M946 228 l16 -56 l16 56 z"/><path d="M912 228 l13 -46 l13 46 z"/>
  </g>
  <path fill="#dfe8d6" d="M0 226 L1000 220 L1000 560 L0 560 Z"/>

  <!-- 川と橋 -->
  <path fill="#a9bcc4" d="M0 262 L1000 248 L1000 274 L0 290 Z"/>
  <path fill="#8ec0dd" d="M0 268 L1000 254 L1000 268 L0 282 Z"/>
  <g>
    <rect x="600" y="246" width="120" height="12" rx="3" fill="#9aa39b"/>
    <rect x="612" y="258" width="10" height="22" fill="#8b948d"/>
    <rect x="698" y="256" width="10" height="22" fill="#8b948d"/>
  </g>

  <!-- 右奥：袋井の街 -->
  <g>
    <rect x="812" y="228" width="156" height="72" rx="4" fill="#e3e7ea" stroke="#9fa9b0" stroke-width="3"/>
    <path d="M806 228 L890 196 L974 228 Z" fill="#b9c4cb" stroke="#8d979e" stroke-width="3"/>
    <g fill="#93b3c9"><rect x="828" y="246" width="22" height="26"/><rect x="862" y="246" width="22" height="26"/><rect x="896" y="246" width="22" height="26"/><rect x="930" y="246" width="22" height="26"/></g>
    <rect x="856" y="278" width="34" height="22" fill="#6f8391"/>
    <rect x="740" y="244" width="66" height="56" rx="4" fill="#f6f7f4" stroke="#a6afa6" stroke-width="3"/>
    <rect x="762" y="230" width="22" height="16" fill="#c9d3cd"/>
    <path d="M767 234 h12 M773 230 v12" stroke="#c0453c" stroke-width="4"/>
    <g fill="#c6d3d8"><rect x="752" y="258" width="18" height="16"/><rect x="778" y="258" width="18" height="16"/></g>
    <rect x="740" y="300" width="228" height="8" fill="#c3c8bf"/>
    <rect x="806" y="196" width="0" height="0"/>
  </g>
  <rect x="806" y="160" width="140" height="30" rx="6" fill="#1f3e52"/>
  <text x="876" y="182" font-family="'Meiryo','Hiragino Kaku Gothic ProN',sans-serif" font-size="17" font-weight="bold" fill="#ffffff" text-anchor="middle">袋井方面</text>

  <!-- 道路 -->
  <path fill="url(#afr1Road)" d="M0 470 L340 386 L1000 330 L1000 372 L360 424 L0 520 Z"/>
  <g stroke="#f0efe8" stroke-width="5" stroke-dasharray="30 26" fill="none" opacity="0.9">
    <path d="M0 496 L346 406 L1000 352"/>
  </g>

  <!-- 左：実家 -->
  <g>
    <path d="M22 404 L128 356 L234 404 Z" fill="#7d6a58"/>
    <path d="M30 400 L128 356 L226 400 Z" fill="#a08a72"/>
    <rect x="46" y="404" width="164" height="80" fill="#f2eee4" stroke="#b6ad9c" stroke-width="3"/>
    <rect x="64" y="424" width="46" height="36" fill="#cfd9d6" stroke="#9aa5a3" stroke-width="3"/>
    <rect x="126" y="424" width="46" height="36" fill="#cfd9d6" stroke="#9aa5a3" stroke-width="3"/>
    <rect x="96" y="460" width="34" height="24" fill="#8a7a66"/>
  </g>
  <!-- 高齢の女性 -->
  <g>
    <circle cx="256" cy="440" r="13" fill="#e8cdb4" stroke="#b79a80" stroke-width="2"/>
    <path d="M244 436 q12 -14 24 0 q-12 -6 -24 0 Z" fill="#c9c4bd"/>
    <path d="M244 456 q12 -10 24 0 l6 44 h-36 Z" fill="#7f96a8"/>
    <path d="M276 462 l4 48" stroke="#8a6f52" stroke-width="4" fill="none"/>
  </g>

  <!-- 左：町営バス -->
  <g>
    <rect x="300" y="398" width="150" height="86" rx="9" fill="#f5f7f2" stroke="#5c7284" stroke-width="4"/>
    <rect x="300" y="398" width="150" height="18" rx="9" fill="#4d7f5f"/>
    <rect x="314" y="422" width="40" height="30" rx="3" fill="#bcd4e0"/>
    <rect x="362" y="422" width="40" height="30" rx="3" fill="#bcd4e0"/>
    <rect x="410" y="422" width="28" height="30" rx="3" fill="#bcd4e0"/>
    <circle cx="330" cy="488" r="15" fill="#3b3f42"/><circle cx="330" cy="488" r="6" fill="#b9bdbe"/>
    <circle cx="422" cy="488" r="15" fill="#3b3f42"/><circle cx="422" cy="488" r="6" fill="#b9bdbe"/>
    <text x="375" y="474" font-family="'Meiryo','Hiragino Kaku Gothic ProN',sans-serif" font-size="14" font-weight="bold" fill="#3d5364" text-anchor="middle">森町営バス</text>
  </g>
  <g>
    <rect x="306" y="352" width="138" height="42" rx="8" fill="#ffffff" stroke="#4d7f5f" stroke-width="4"/>
    <text x="375" y="381" font-family="'Meiryo','Hiragino Kaku Gothic ProN',sans-serif" font-size="24" font-weight="bold" fill="#2f5f45" text-anchor="middle">200円</text>
  </g>

  <!-- 乗り継ぎのバス停 -->
  <g>
    <rect x="486" y="330" width="10" height="126" fill="#9aa39b"/>
    <rect x="446" y="306" width="122" height="40" rx="6" fill="#ffffff" stroke="#6c7b6f" stroke-width="4"/>
    <text x="507" y="333" font-family="'Meiryo','Hiragino Kaku Gothic ProN',sans-serif" font-size="17" font-weight="bold" fill="#33463a" text-anchor="middle">森林組合前</text>
    <path d="M470 372 h58 l-10 -12 h20 l18 20 l-18 20 h-20 l10 -12 h-58 Z" fill="#d6a83c"/>
  </g>

  <!-- 右：秋葉線バス -->
  <g>
    <rect x="620" y="370" width="196" height="98" rx="10" fill="#fbfaf5" stroke="#3f5b6d" stroke-width="4"/>
    <rect x="620" y="370" width="196" height="20" rx="10" fill="#c0453c"/>
    <rect x="636" y="398" width="46" height="34" rx="3" fill="#bcd4e0"/>
    <rect x="690" y="398" width="46" height="34" rx="3" fill="#bcd4e0"/>
    <rect x="744" y="398" width="34" height="34" rx="3" fill="#bcd4e0"/>
    <circle cx="662" cy="472" r="17" fill="#3b3f42"/><circle cx="662" cy="472" r="7" fill="#b9bdbe"/>
    <circle cx="782" cy="472" r="17" fill="#3b3f42"/><circle cx="782" cy="472" r="7" fill="#b9bdbe"/>
    <text x="718" y="458" font-family="'Meiryo','Hiragino Kaku Gothic ProN',sans-serif" font-size="14" font-weight="bold" fill="#3d5364" text-anchor="middle">秋葉線</text>
  </g>

  <!-- 運賃の札：590円に斜線、710円 -->
  <g>
    <rect x="596" y="306" width="118" height="44" rx="8" fill="#eceae4" stroke="#9a958c" stroke-width="3"/>
    <text x="655" y="336" font-family="'Meiryo','Hiragino Kaku Gothic ProN',sans-serif" font-size="22" fill="#6f6a62" text-anchor="middle">590円</text>
    <path d="M604 344 L706 312" stroke="#b04a40" stroke-width="5"/>
  </g>
  <g>
    <rect x="726" y="298" width="140" height="52" rx="9" fill="#ffffff" stroke="#c0453c" stroke-width="5"/>
    <text x="796" y="334" font-family="'Meiryo','Hiragino Kaku Gothic ProN',sans-serif" font-size="27" font-weight="bold" fill="#a83a31" text-anchor="middle">710円</text>
  </g>

  <!-- 下部の帯 -->
  <rect x="0" y="516" width="1000" height="44" fill="#1f3e52"/>
  <rect x="0" y="516" width="1000" height="5" fill="#d6a83c"/>
  <text x="26" y="546" font-family="'Meiryo','Hiragino Kaku Gothic ProN',sans-serif" font-size="19" font-weight="bold" fill="#ffffff">町営バスは据え置き、秋葉線が2026年5月1日に改定</text>
</svg>
